<svg
            class="w-4 h-4 mr-1 text-green-600"
            fill="#016630"
            height="200px"
            width="200px"
            version="1.1"
            id="Capa_1"
            xmlns="http://www.w3.org/2000/svg"
            xmlns:xlink="http://www.w3.org/1999/xlink"
            viewBox="0 0 489.9 489.9"
            xml:space="preserve"
          >
            <g id="SVGRepo_bgCarrier" stroke-width="0"></g>
            <g
              id="SVGRepo_tracerCarrier"
              stroke-linecap="round"
              stroke-linejoin="round"
            ></g>
            <g id="SVGRepo_iconCarrier">
              <g>
                <g>
                  <path
                    d="M343.9,179.25c0,52.1,32.3,93.8,73,93.8s73-41.7,73-93.8c0-43.8-22.8-80.2-54.2-90.7c-7.2-50.3-51-88.5-105.3-88.5 c-58.4,0-106.3,45.9-106.3,103.2v23.6c-18.1-14.1-41.3-22.5-66.7-22.5c-53,0-97.4,37.9-105.1,87.8C21.7,202.85,0,238.25,0,281.55 c0,52.1,31.3,92.8,71.9,92.8c39.6,0,71.9-40.7,71.9-92.8c0-41.9-20.2-76.4-49.3-88.3c6.8-27.6,32.7-48.2,63.9-48.2 c36.5,0,65.7,28.1,65.7,62.5v217c-7.6,1.7-15,4.8-21.9,9.2c-8.3,5.2-19.8,5.2-28.1,0c-21.9-14.6-51.1-14.6-73,0l-29.2,18.6 c-9.4,6.3-12.5,18.8-6.3,28.1c3.1,6.3,10.4,9.4,16.7,9.4c10.4,0,41.7-22.9,41.7-22.9c8.3-5.2,19.8-5.2,28.1,0 c22.9,14.6,51.1,14.6,74,0c8.3-5.2,19.8-5.2,28.1,0c45,35.9,87.6-2.1,87.6-2.1c8.3-5.2,19.8-5.2,28.1,0l25,17.7 c9.4,6.3,21.9,3.1,28.1-6.3c6.3-9.4,3.1-21.9-6.3-28.1l-25-16.7c-21.9-14.6-51.1-14.6-73,0c0,0-19.5,18.2-37.5,6.3 c-2.9-3.4-13.6-9-17.7-10.5v-324.1c0-34.4,29.2-62.5,65.7-62.5c31.8,0,58,21.4,64.3,49.6C364.6,102.65,343.9,137.65,343.9,179.25z M71.9,332.55c-14.6,0-31.3-21.9-31.3-52.1s16.7-52.1,31.3-52.1s30.2,21.9,31.3,52.1C103.1,310.65,86.5,332.55,71.9,332.55z M416.9,126.15c15.6,0,32.3,21.9,31.3,53.2c0,31.3-16.7,53.2-31.3,53.2s-31.3-21.9-31.3-53.2S402.3,126.15,416.9,126.15z"
                  ></path>
                </g>
              </g>
            </g>
          </svg>